<mxfile host="65bd71144e">
    <diagram id="3BGbi3CdkreyqRbULGaZ" name="Page-1">
        <mxGraphModel dx="1175" dy="774" grid="1" gridSize="10" guides="1" tooltips="1" connect="1" arrows="1" fold="1" page="1" pageScale="1" pageWidth="850" pageHeight="1100" math="0" shadow="0">
            <root>
                <mxCell id="0"/>
                <mxCell id="1" parent="0"/>
                <mxCell id="6" value="&lt;b&gt;&lt;font style=&quot;font-size: 36px&quot;&gt;RBC - Store&lt;/font&gt;&lt;/b&gt;" style="text;html=1;strokeColor=none;fillColor=none;align=center;verticalAlign=middle;whiteSpace=wrap;rounded=0;" vertex="1" parent="1">
                    <mxGeometry x="303" y="10" width="277" height="30" as="geometry"/>
                </mxCell>
                <mxCell id="7" value="" style="group" vertex="1" connectable="0" parent="1">
                    <mxGeometry x="87.5" y="100" width="510" height="340" as="geometry"/>
                </mxCell>
                <mxCell id="2" value="" style="rounded=1;whiteSpace=wrap;html=1;sketch=0;" vertex="1" parent="7">
                    <mxGeometry width="510" height="340" as="geometry"/>
                </mxCell>
                <mxCell id="3" value="&lt;h1&gt;Functional Requirements&lt;/h1&gt;&lt;div&gt;&lt;ol&gt;&lt;li&gt;&amp;nbsp;Render items in 3-D space (showroom) - Interactive&lt;/li&gt;&lt;li&gt;Make payments on the site (PayFast Integration)&lt;/li&gt;&lt;li&gt;Create Packages -:&amp;nbsp;&lt;/li&gt;&lt;ul&gt;&lt;li&gt;Combine items to packages&lt;/li&gt;&lt;/ul&gt;&lt;li&gt;User Management -:&lt;/li&gt;&lt;ul&gt;&lt;li&gt;Access control before checkout&lt;/li&gt;&lt;li&gt;Login/Sign-in/ Sign-up&lt;/li&gt;&lt;li&gt;History Management&lt;/li&gt;&lt;li&gt;Wishlist&lt;/li&gt;&lt;/ul&gt;&lt;li&gt;CRUD operations - Admin Console&lt;/li&gt;&lt;li&gt;Mailing service&amp;nbsp;&lt;/li&gt;&lt;li&gt;Generate Quotes - PDF Generator&lt;/li&gt;&lt;li&gt;Instant Messaging - Bot/Human (Support Service) - Admin-Console&lt;/li&gt;&lt;/ol&gt;&lt;/div&gt;" style="text;html=1;strokeColor=none;fillColor=none;spacing=5;spacingTop=-20;whiteSpace=wrap;overflow=hidden;rounded=0;" vertex="1" parent="7">
                    <mxGeometry x="30" y="10" width="460" height="330" as="geometry"/>
                </mxCell>
                <mxCell id="8" value="" style="group" vertex="1" connectable="0" parent="1">
                    <mxGeometry x="90" y="465" width="505" height="170" as="geometry"/>
                </mxCell>
                <mxCell id="4" value="" style="rounded=1;whiteSpace=wrap;html=1;" vertex="1" parent="8">
                    <mxGeometry width="505" height="170" as="geometry"/>
                </mxCell>
                <mxCell id="5" value="&lt;h1&gt;Non - Functional Requirements&lt;/h1&gt;&lt;div&gt;&lt;ol&gt;&lt;li&gt;&amp;nbsp;High rendering speeds&lt;br&gt;&lt;/li&gt;&lt;li&gt;Consistent&amp;nbsp;&lt;/li&gt;&lt;li&gt;Always available&lt;/li&gt;&lt;li&gt;Easily extensible&lt;/li&gt;&lt;/ol&gt;&lt;/div&gt;" style="text;html=1;strokeColor=none;fillColor=none;spacing=5;spacingTop=-20;whiteSpace=wrap;overflow=hidden;rounded=0;" vertex="1" parent="8">
                    <mxGeometry x="27.5" y="10" width="395" height="140" as="geometry"/>
                </mxCell>
                <mxCell id="35" value="" style="group" vertex="1" connectable="0" parent="1">
                    <mxGeometry x="20" y="710" width="810" height="450" as="geometry"/>
                </mxCell>
                <mxCell id="9" value="System Manager&lt;br&gt;Service" style="rounded=1;whiteSpace=wrap;html=1;sketch=0;fontSize=12;" vertex="1" parent="35">
                    <mxGeometry x="361.5" y="60" width="120" height="60" as="geometry"/>
                </mxCell>
                <mxCell id="10" value="Mailing service" style="rounded=1;whiteSpace=wrap;html=1;sketch=0;fontSize=12;" vertex="1" parent="35">
                    <mxGeometry y="200" width="110" height="60" as="geometry"/>
                </mxCell>
                <mxCell id="31" style="edgeStyle=orthogonalEdgeStyle;html=1;fontSize=12;" edge="1" parent="35" source="9" target="10">
                    <mxGeometry relative="1" as="geometry"/>
                </mxCell>
                <mxCell id="13" value="View Generator&lt;br&gt;Service" style="rounded=1;whiteSpace=wrap;html=1;sketch=0;fontSize=12;" vertex="1" parent="35">
                    <mxGeometry x="430" y="200" width="110" height="60" as="geometry"/>
                </mxCell>
                <mxCell id="27" style="edgeStyle=orthogonalEdgeStyle;html=1;fontSize=12;" edge="1" parent="35" source="9" target="13">
                    <mxGeometry relative="1" as="geometry"/>
                </mxCell>
                <mxCell id="14" value="User Management&lt;br&gt;Service" style="rounded=1;whiteSpace=wrap;html=1;sketch=0;fontSize=12;" vertex="1" parent="35">
                    <mxGeometry x="560" y="200" width="110" height="60" as="geometry"/>
                </mxCell>
                <mxCell id="28" style="edgeStyle=orthogonalEdgeStyle;html=1;fontSize=12;" edge="1" parent="35" source="9" target="14">
                    <mxGeometry relative="1" as="geometry"/>
                </mxCell>
                <mxCell id="15" value="PDF Generator" style="rounded=1;whiteSpace=wrap;html=1;sketch=0;fontSize=12;" vertex="1" parent="35">
                    <mxGeometry x="700" y="200" width="110" height="60" as="geometry"/>
                </mxCell>
                <mxCell id="29" style="edgeStyle=orthogonalEdgeStyle;html=1;fontSize=12;" edge="1" parent="35" source="9" target="15">
                    <mxGeometry relative="1" as="geometry"/>
                </mxCell>
                <mxCell id="16" value="Payment Handler" style="rounded=1;whiteSpace=wrap;html=1;sketch=0;fontSize=12;" vertex="1" parent="35">
                    <mxGeometry x="280" y="200" width="110" height="60" as="geometry"/>
                </mxCell>
                <mxCell id="26" style="edgeStyle=orthogonalEdgeStyle;html=1;fontSize=12;" edge="1" parent="35" source="9" target="16">
                    <mxGeometry relative="1" as="geometry"/>
                </mxCell>
                <mxCell id="17" value="Packages Manager" style="rounded=1;whiteSpace=wrap;html=1;sketch=0;fontSize=12;" vertex="1" parent="35">
                    <mxGeometry x="140" y="200" width="110" height="60" as="geometry"/>
                </mxCell>
                <mxCell id="30" style="edgeStyle=orthogonalEdgeStyle;html=1;fontSize=12;" edge="1" parent="35" source="9" target="17">
                    <mxGeometry relative="1" as="geometry"/>
                </mxCell>
                <mxCell id="32" style="edgeStyle=orthogonalEdgeStyle;html=1;entryX=0.579;entryY=-0.017;entryDx=0;entryDy=0;entryPerimeter=0;fontSize=12;" edge="1" parent="35" source="18" target="9">
                    <mxGeometry relative="1" as="geometry"/>
                </mxCell>
                <mxCell id="18" value="Admin Console" style="rounded=1;whiteSpace=wrap;html=1;sketch=0;fontSize=12;" vertex="1" parent="35">
                    <mxGeometry x="650" width="110" height="60" as="geometry"/>
                </mxCell>
                <mxCell id="19" value="Support Service" style="rounded=1;whiteSpace=wrap;html=1;sketch=0;fontSize=12;" vertex="1" parent="35">
                    <mxGeometry x="361.5" y="290" width="120" height="60" as="geometry"/>
                </mxCell>
                <mxCell id="20" style="edgeStyle=orthogonalEdgeStyle;html=1;fontSize=12;" edge="1" parent="35" source="9" target="19">
                    <mxGeometry relative="1" as="geometry">
                        <Array as="points">
                            <mxPoint x="422" y="180"/>
                            <mxPoint x="422" y="180"/>
                        </Array>
                    </mxGeometry>
                </mxCell>
                <mxCell id="22" value="Instant Messaging&amp;nbsp;&lt;br&gt;Service" style="rounded=1;whiteSpace=wrap;html=1;sketch=0;fontSize=12;" vertex="1" parent="35">
                    <mxGeometry x="200" y="390" width="120" height="60" as="geometry"/>
                </mxCell>
                <mxCell id="24" style="edgeStyle=orthogonalEdgeStyle;html=1;fontSize=12;" edge="1" parent="35" source="19" target="22">
                    <mxGeometry relative="1" as="geometry"/>
                </mxCell>
                <mxCell id="23" value="Mailing service" style="rounded=1;whiteSpace=wrap;html=1;sketch=0;fontSize=12;" vertex="1" parent="35">
                    <mxGeometry x="366.5" y="390" width="110" height="60" as="geometry"/>
                </mxCell>
                <mxCell id="25" style="edgeStyle=orthogonalEdgeStyle;html=1;fontSize=12;" edge="1" parent="35" source="19" target="23">
                    <mxGeometry relative="1" as="geometry"/>
                </mxCell>
                <mxCell id="34" style="edgeStyle=orthogonalEdgeStyle;html=1;entryX=0.5;entryY=0;entryDx=0;entryDy=0;fontSize=12;" edge="1" parent="35" source="33" target="9">
                    <mxGeometry relative="1" as="geometry"/>
                </mxCell>
                <mxCell id="33" value="(Web View)&lt;br&gt;Server" style="rounded=1;whiteSpace=wrap;html=1;sketch=0;fontSize=12;" vertex="1" parent="35">
                    <mxGeometry x="30" width="110" height="60" as="geometry"/>
                </mxCell>
            </root>
        </mxGraphModel>
    </diagram>
</mxfile>